<svg width="36" height="34" viewBox="0 0 36 34" fill="none" xmlns="http://www.w3.org/2000/svg">
<path d="M7.25 15.0516H23.5M13.5 23.8016H23.5M13.5 32.5516H23.5M1 21.3016C1 21.9646 1.26339 22.6005 1.73223 23.0693C2.20107 23.5382 2.83696 23.8016 3.5 23.8016H7.25M1 15.0516V30.0516C1 30.7146 1.26339 31.3505 1.73223 31.8193C2.20107 32.2882 2.83696 32.5516 3.5 32.5516H7.25" stroke="#F0B100" stroke-width="2" stroke-linecap="round" stroke-linejoin="round"/>
<path d="M24.6883 2.57294C24.6756 2.4081 24.7209 2.244 24.8164 2.10906C24.9119 1.97411 25.0516 1.87682 25.2113 1.83403C25.371 1.79124 25.5406 1.80565 25.6908 1.87476C25.841 1.94387 25.9623 2.06333 26.0336 2.21245L27.772 5.82311C27.8955 6.07983 28.0935 6.29334 28.3403 6.43579C28.587 6.57823 28.8709 6.643 29.155 6.62162L33.1511 6.32172C33.3159 6.30898 33.48 6.35428 33.615 6.44979C33.7499 6.54531 33.8472 6.685 33.89 6.8447C33.9328 7.00439 33.9184 7.17402 33.8493 7.3242C33.7802 7.47439 33.6607 7.59568 33.5116 7.66706L29.9009 9.40538C29.6442 9.52891 29.4307 9.72696 29.2882 9.97369C29.1458 10.2204 29.081 10.5043 29.1024 10.7884L29.4023 14.7845C29.4151 14.9494 29.3697 15.1135 29.2742 15.2484C29.1787 15.3833 29.039 15.4806 28.8793 15.5234C28.7196 15.5662 28.55 15.5518 28.3998 15.4827C28.2496 15.4136 28.1284 15.2941 28.057 15.145L26.3187 11.5343C26.1951 11.2776 25.9971 11.0641 25.7503 10.9217C25.5036 10.7792 25.2197 10.7145 24.9356 10.7358L20.9395 11.0357C20.7747 11.0485 20.6106 11.0032 20.4756 10.9077C20.3407 10.8121 20.2434 10.6725 20.2006 10.5128C20.1578 10.3531 20.1722 10.1834 20.2413 10.0332C20.3104 9.88306 20.4299 9.76177 20.579 9.69039L24.1897 7.95208C24.4464 7.82854 24.6599 7.63049 24.8024 7.38377C24.9448 7.13704 25.0096 6.85311 24.9882 6.56902L24.6883 2.57294Z" stroke="#F0B100" stroke-width="2" stroke-linecap="round" stroke-linejoin="round"/>
</svg>
